<?xml version="1.0" encoding="UTF-8"?>
<svg xmlns="http://www.w3.org/2000/svg" xmlns:xlink="http://www.w3.org/1999/xlink" width="11px" height="11px" viewBox="0 0 11 11" version="1.1">
<g id="surface1">
<path style=" stroke:none;fill-rule:evenodd;fill:rgb(58.431373%,64.705882%,65.098039%);fill-opacity:1;" d="M 5.5 11.027344 C 2.453125 11.035156 -0.0195312 8.566406 -0.0234375 5.519531 C -0.0273438 2.472656 2.4375 0.00390625 5.484375 0 C 8.53125 0 11.003906 2.46875 11.003906 5.515625 C 11.003906 8.554688 8.542969 11.023438 5.5 11.027344 Z M 5.511719 0.898438 C 2.960938 0.898438 0.894531 2.964844 0.894531 5.515625 C 0.894531 8.0625 2.960938 10.128906 5.511719 10.128906 C 8.058594 10.128906 10.125 8.0625 10.125 5.515625 C 10.121094 2.96875 8.058594 0.902344 5.511719 0.898438 Z M 6.429688 5.515625 C 6.429688 6.023438 6.019531 6.433594 5.511719 6.433594 C 5.003906 6.433594 4.589844 6.023438 4.589844 5.515625 C 4.589844 5.007812 5.003906 4.59375 5.511719 4.59375 C 6.019531 4.59375 6.429688 5.007812 6.429688 5.515625 Z M 8.269531 5.515625 C 8.269531 5.769531 7.546875 5.972656 6.660156 5.972656 C 5.769531 5.972656 5.511719 5.769531 5.511719 5.515625 C 5.511719 5.261719 5.773438 5.054688 6.660156 5.054688 C 7.546875 5.054688 8.269531 5.261719 8.269531 5.515625 Z M 5.96875 3.90625 C 5.96875 5.046875 5.765625 5.515625 5.511719 5.515625 C 5.257812 5.515625 5.050781 5.046875 5.050781 3.90625 C 5.050781 2.765625 5.257812 1.839844 5.511719 1.839844 C 5.765625 1.839844 5.96875 2.765625 5.96875 3.90625 Z M 5.96875 3.90625 "/>
</g>
</svg>
