<svg xmlns="http://www.w3.org/2000/svg" width="22.999" height="22.999" viewBox="0 0 24 24">
  <defs>
    <style>
      .cls-1 {
        fill: #95a5a6;
        fill-rule: evenodd;
      }
    </style>
  </defs>
  <path class="cls-1" d="M264,291H246a3,3,0,0,1-3-3V270a3,3,0,0,1,3-3h18a3,3,0,0,1,3,3v18A3,3,0,0,1,264,291Zm-18-22a0.993,0.993,0,0,0-1,1v18a0.993,0.993,0,0,0,1,1h18a0.993,0.993,0,0,0,1-1V270a0.993,0.993,0,0,0-1-1H246Zm10.021,21.584h-2v-22h2v22ZM266,280H244v-2h22v2Zm-16-4h-1v-5h1v5Zm-3-2v-1h5v1h-5Zm11,0v-1h5v1h-5Zm0,11v-1h5v1h-5Zm3-2h-1v-1h1v1Zm0,4h-1v-1h1v1Zm-9.354-5.353,0.708,0.707-5,5-0.708-.708Zm-5,.707,0.708-.707,5,5-0.708.708Z" transform="translate(-243 -267)"/>
</svg>
