<svg xmlns="http://www.w3.org/2000/svg" width="22.876" height="22.812" viewBox="0 0 22.876 22.812">
  <defs>
    <style>
      .cls-1 {
        fill: #2ecc71;
        fill-rule: evenodd;
      }
    </style>
  </defs>
  <path class="cls-1" d="M254,222.892A11.392,11.392,0,1,1,265.437,211.5,11.428,11.428,0,0,1,254,222.892Zm0-21.008a9.616,9.616,0,1,0,9.656,9.615A9.646,9.646,0,0,0,254,201.884Zm0.027,15.029a5.459,5.459,0,1,1,5.442-5.459A5.457,5.457,0,0,1,254.026,216.913Zm0-10.051a4.642,4.642,0,1,0,4.629,4.643A4.642,4.642,0,0,0,254.031,206.862Zm-0.037,7.016a2.4,2.4,0,1,1,2.433-2.4A2.414,2.414,0,0,1,253.994,213.878Zm4.018-5.926a0.509,0.509,0,0,1-.354-0.144,0.482,0.482,0,0,1,0-.692l3-2.935a0.506,0.506,0,0,1,.707,0,0.481,0.481,0,0,1,0,.691l-3,2.936A0.5,0.5,0,0,1,258.012,207.952Zm-11,11a0.5,0.5,0,0,1-.349-0.859l3.042-2.957a0.5,0.5,0,1,1,.7.717l-3.042,2.957A0.5,0.5,0,0,1,247.01,218.954Z" transform="translate(-242.562 -200.094)"/>
</svg>
