<svg xmlns="http://www.w3.org/2000/svg" width="12.062" height="16" viewBox="0 0 12.062 16">
  <defs>
    <style>
      .cls-1 {
        fill: #9ba3af;
        fill-rule: evenodd;
      }
    </style>
  </defs>
  <path class="cls-1" d="M597,271.318a0.672,0.672,0,0,1-.619-0.414l-0.965-2.329-2.536.74a0.669,0.669,0,0,1-.76-0.989l1.287-2.135-2.144-1.4a0.67,0.67,0,0,1,.269-1.224l2.6-.377-0.19-2.468a0.669,0.669,0,0,1,1.11-.555L597,261.882l1.948-1.715a0.67,0.67,0,0,1,1.111.554l-0.189,2.469,2.6,0.377a0.67,0.67,0,0,1,.27,1.224l-2.144,1.4,1.288,2.135a0.67,0.67,0,0,1-.761.989l-2.535-.74-0.966,2.329A0.672,0.672,0,0,1,597,271.318Zm-1.2-4.223a0.669,0.669,0,0,1,.618.413L597,268.9l0.577-1.391a0.667,0.667,0,0,1,.806-0.387l1.465,0.428-0.736-1.221a0.67,0.67,0,0,1,.207-0.906l1.2-.783-1.464-.213a0.671,0.671,0,0,1-.572-0.714l0.112-1.452-1.155,1.016a0.668,0.668,0,0,1-.886,0l-1.154-1.015,0.111,1.451a0.669,0.669,0,0,1-.571.714l-1.464.213,1.2,0.783a0.669,0.669,0,0,1,.208.906l-0.736,1.221,1.465-.428A0.682,0.682,0,0,1,595.8,267.1Zm3.1,8.9a0.675,0.675,0,0,1-.384-0.121l-1.51-1.063-1.416,1.052a0.666,0.666,0,0,1-.4.132,1.547,1.547,0,0,1-1.5-1.339V268.2a0.619,0.619,0,0,1,.607-0.67,0.67,0.67,0,0,1,.669.67v6.347a0.7,0.7,0,0,0,.088.054l1.54-1.142a0.668,0.668,0,0,1,.784-0.011L599,274.582a0.013,0.013,0,0,0,.006,0V268.2a0.67,0.67,0,1,1,1.339,0v6.466A1.521,1.521,0,0,1,598.9,276Z" transform="translate(-590.969 -260)"/>
</svg>
