<svg xmlns="http://www.w3.org/2000/svg" width="18" height="17.312" viewBox="0 0 18 17.312">
  <defs>
    <style>
      .cls-1 {
        fill: #95a5a6;
        fill-rule: evenodd;
      }
    </style>
  </defs>
  <path class="cls-1" d="M495.213,132.146A0.754,0.754,0,0,1,494.57,131l1.541-2.555c-3.839-.813-6.611-3.537-6.611-6.67,0-3.817,4.037-6.922,9-6.922s9,3.1,9,6.922c0,2.854-2.212,5.366-5.644,6.422l-6.25,3.836A0.764,0.764,0,0,1,495.213,132.146Zm3.286-15.785c-4.133,0-7.5,2.43-7.5,5.416,0,2.663,2.754,4.964,6.408,5.352a0.754,0.754,0,0,1,.564,1.139l-0.522.866,3.7-2.27a0.762,0.762,0,0,1,.178-0.079c2.834-.844,4.665-2.81,4.665-5.008C506,118.791,502.632,116.361,498.5,116.361Zm4.478,5.248h-7.523a0.73,0.73,0,1,1,0-1.459h7.523A0.73,0.73,0,1,1,502.977,121.609Zm-2.261,2.283h-5.248a0.753,0.753,0,1,1,0-1.506h5.248A0.753,0.753,0,1,1,500.716,123.892Z" transform="translate(-489.5 -114.844)"/>
</svg>
