<svg xmlns="http://www.w3.org/2000/svg" width="17.969" height="18" viewBox="0 0 17.969 18">
  <defs>
    <style>
      .cls-1 {
        fill: #95a5a6;
        fill-rule: evenodd;
      }
    </style>
  </defs>
  <path class="cls-1" d="M458.269,132.5H440.612l-0.064-.683c-0.015-.165-0.345-4.054,1.571-6.166a4.068,4.068,0,0,1,3.145-1.331h0.349l0.223,0.268a4.513,4.513,0,0,0,3.659,1.981c1.616,0,2.494-.753,3.522-2l0.224-.272h0.351a4.423,4.423,0,0,1,3.561,1.516c1.836,2.18,1.245,5.9,1.218,6.061ZM441.9,131.079h15.11c0.07-1.048.058-3.115-.963-4.35a2.841,2.841,0,0,0-2.1-1,5.6,5.6,0,0,1-4.513,2.3,5.768,5.768,0,0,1-4.578-2.273,2.525,2.525,0,0,0-1.728.85C442.047,127.815,441.9,129.969,441.9,131.079Zm7.738-6.091c-2.626,0-4.468-4.083-4.468-6.292a4.476,4.476,0,0,1,8.934,0C454.1,120.905,452.26,124.988,449.636,124.988Zm-0.036-9.142a2.986,2.986,0,0,0-3.115,2.829c0,1.758,1.6,5.025,3.115,5.025s3.115-3.267,3.115-5.025A2.985,2.985,0,0,0,449.6,115.846Z" transform="translate(-440.531 -114.5)"/>
</svg>
