<svg xmlns="http://www.w3.org/2000/svg" width="18.031" height="18" viewBox="0 0 18.031 18">
  <defs>
    <style>
      .cls-1 {
        fill: #95a5a6;
        fill-rule: evenodd;
      }
    </style>
  </defs>
  <path class="cls-1" d="M542.838,132.5a1.7,1.7,0,0,1-1.253-.434,0.732,0.732,0,0,1-.205-0.656c0.023-.132.529-3.408-3.45-7.366a5.925,5.925,0,0,1,.18-7.979,5.574,5.574,0,0,1,3.978-1.565,5.785,5.785,0,0,1,4.024,1.543,11.158,11.158,0,0,0,7.435,3.335,0.867,0.867,0,0,1,.576.217c1.493,1.485-1.485,6.9-3.634,9.044C548.493,130.623,544.775,132.5,542.838,132.5Zm-0.75-16.522a4.1,4.1,0,0,0-2.927,1.131,4.436,4.436,0,0,0-.181,5.89c3.537,3.52,3.93,6.692,3.913,8.022,1.422-.039,4.746-1.637,6.545-3.427,2.074-2.065,3.64-5.626,3.637-6.761a12.908,12.908,0,0,1-8.014-3.746A4.274,4.274,0,0,0,542.088,115.978Zm6.456,14.058a2.64,2.64,0,0,0,2.958-.5,2.587,2.587,0,0,0,.5-2.959Z" transform="translate(-536.5 -114.5)"/>
</svg>
