<svg xmlns="http://www.w3.org/2000/svg" width="18" height="18" viewBox="0 0 18 18">
  <defs>
    <style>
      .cls-1 {
        fill: #95a5a6;
        fill-rule: evenodd;
      }
    </style>
  </defs>
  <path class="cls-1" d="M1511.38,127.741a6.369,6.369,0,1,0-6.38-6.315A6.36,6.36,0,0,0,1511.38,127.741Zm-0.11-11.267a4.942,4.942,0,1,1-4.88,4.983A4.925,4.925,0,0,1,1511.27,116.474Zm6.77,9.975a1.4,1.4,0,0,1,.32.221l4.28,4.238a1.231,1.231,0,0,1,.01,1.725,1.2,1.2,0,0,1-1.71.015l-4.28-4.239a1.189,1.189,0,0,1-.23-0.315A6.359,6.359,0,0,0,1518.04,126.449Zm-10.07-5.39a0.368,0.368,0,0,0,.37-0.38,2.228,2.228,0,0,1,2.2-2.247,0.377,0.377,0,0,0-.01-0.754,2.968,2.968,0,0,0-2.93,3.008A0.372,0.372,0,0,0,1507.97,121.059Z" transform="translate(-1505 -115)"/>
</svg>
