<svg xmlns="http://www.w3.org/2000/svg" width="18" height="18" viewBox="0 0 18 18">
  <defs>
    <style>
      .cls-1 {
        fill: #fff;
        fill-rule: evenodd;
      }
    </style>
  </defs>
  <path class="cls-1" d="M1474.5,230.186v2.729c0.38,0,6.75.051,6.76,0.051a0.685,0.685,0,0,0,.71-0.717V230.8c0-.191.42-0.261,0.68-0.007l3.08,3.218a0.819,0.819,0,0,1,.02,1l-3.13,3.222c-0.26.264-.65,0.147-0.65-0.035v-1.412a0.715,0.715,0,0,0-.71-0.753h-6.76v2.781a4.683,4.683,0,0,0,4.68,4.677h8.64a4.683,4.683,0,0,0,4.68-4.677v-8.629a4.684,4.684,0,0,0-4.68-4.678h-8.64A4.684,4.684,0,0,0,1474.5,230.186Zm13.36-3.266a3.222,3.222,0,0,1,3.22,3.222v8.765a3.22,3.22,0,0,1-3.22,3.22h-8.77a3.22,3.22,0,0,1-3.22-3.22v-1.472l4.69,0v0.64a1.6,1.6,0,0,0,1.64,1.7,2.127,2.127,0,0,0,1.53-.637l3.02-3.082a2.392,2.392,0,0,0-.03-3.064l-2.97-3.066a2.144,2.144,0,0,0-1.55-.668,1.625,1.625,0,0,0-1.67,1.7v0.55l-4.66.006v-1.372a3.222,3.222,0,0,1,3.22-3.222h8.77Z" transform="translate(-1474.5 -225.5)"/>
</svg>
