<svg xmlns="http://www.w3.org/2000/svg" width="22.999" height="22.999" viewBox="0 0 24 24">
  <defs>
    <style>
      .cls-1 {
        fill: #95a5a6;
        fill-rule: evenodd;
      }
    </style>
  </defs>
  <path class="cls-1" d="M264.928,464.5H246.072a2.573,2.573,0,0,0-2.571,2.571v18.856a2.573,2.573,0,0,0,2.571,2.571h18.856a2.573,2.573,0,0,0,2.571-2.571V467.072A2.573,2.573,0,0,0,264.928,464.5Zm0.857,21.427a0.857,0.857,0,0,1-.857.857H246.072a0.857,0.857,0,0,1-.857-0.857V467.072a0.857,0.857,0,0,1,.857-0.857h18.856a0.857,0.857,0,0,1,.857.857v18.856Zm-15.428-7.714a3.429,3.429,0,1,0,3.429,3.429A3.432,3.432,0,0,0,250.357,478.214Zm0,5.143a1.715,1.715,0,1,1,1.715-1.714A1.715,1.715,0,0,1,250.357,483.357Zm-3.428-10.285v1.714a10.3,10.3,0,0,1,10.285,10.285h1.714A12.012,12.012,0,0,0,246.929,473.072Zm0-4.286V470.5A14.588,14.588,0,0,1,261.5,485.071h1.714A16.3,16.3,0,0,0,246.929,468.786Z" transform="translate(-243.5 -464.5)"/>
</svg>
