<svg xmlns="http://www.w3.org/2000/svg" width="18" height="18" viewBox="0 0 18 18">
  <defs>
    <style>
      .cls-1 {
        fill: #9ba3af;
        fill-rule: evenodd;
      }
    </style>
  </defs>
  <path class="cls-1" d="M1422.32,243.5h0a1.344,1.344,0,0,1-1.07-.6,1.263,1.263,0,0,1-.18-1.164c0.18-.5,2.39-4.954,2.83-5.841l0.06-.111,9.65-9.689a2.342,2.342,0,0,1,3.21.071l1.51,1.5a2.111,2.111,0,0,1,.01,3.074l-9.68,9.733-0.11.056s-5.2,2.588-5.75,2.858A1.071,1.071,0,0,1,1422.32,243.5Zm2.7-6.624c-0.54,1.085-1.23,2.5-1.8,3.659a0.549,0.549,0,0,0,.79.743l3.62-1.8,9.71-9.761a0.617,0.617,0,0,0-.01-0.947l-1.54-1.528a0.8,0.8,0,0,0-1.09-.078Zm10.28-3.861a0.74,0.74,0,0,1-.52-0.216l-3.04-3.039a0.736,0.736,0,1,1,1.04-1.042l3.04,3.039a0.733,0.733,0,0,1,0,1.042A0.723,0.723,0,0,1,1435.3,233.017Z" transform="translate(-1421 -225.5)"/>
</svg>
