<svg xmlns="http://www.w3.org/2000/svg" width="26" height="17.25" viewBox="0 0 26 17.25">
  <defs>
    <style>
      .cls-1 {
        fill: #95a5a6;
        fill-rule: evenodd;
      }
    </style>
  </defs>
  <path class="cls-1" d="M259.14,412.874c-0.054-.013-0.109-0.019-0.163-0.033a17.6,17.6,0,0,1-2.676.842l-0.441.454L256,415.045c0.029,0.193.065,0.381,0.106,0.566a7.29,7.29,0,0,1-.839-0.36l-0.711-.364-0.752.265a8.961,8.961,0,0,1-2.979.5c-3.84,0-6.964-2.276-6.964-5.074s3.124-5.074,6.964-5.074a9.237,9.237,0,0,1,2.331.3,5.918,5.918,0,0,1,.344-1.83,11.024,11.024,0,0,0-2.675-.326c-4.872,0-8.821,3.1-8.821,6.931s3.949,6.931,8.821,6.931a10.839,10.839,0,0,0,3.594-.605,12.872,12.872,0,0,0,5.228,1.235,5.757,5.757,0,0,1-1.81-3.367A6.712,6.712,0,0,0,259.14,412.874Zm2.36-12.013c-3.59,0-6.5,2.287-6.5,5.107a4.429,4.429,0,0,0,1.334,3.09A4.252,4.252,0,0,1,255,411.54a9.493,9.493,0,0,0,3.853-.91,8.014,8.014,0,0,0,2.647.445c3.59,0,6.5-2.287,6.5-5.107S265.09,400.861,261.5,400.861Zm0,8.357c-2.564,0-4.643-1.455-4.643-3.25s2.079-3.25,4.643-3.25,4.643,1.455,4.643,3.25S264.065,409.218,261.5,409.218Z" transform="translate(-242 -400.875)"/>
</svg>
